<svg width="41" height="57" viewBox="0 0 41 57" fill="none" xmlns="http://www.w3.org/2000/svg">
<path fill-rule="evenodd" clip-rule="evenodd" d="M6.16406 27.8883L10.7842 26.5294V24.4911L6.16406 21.7734V27.8883Z" stroke="#E6EBFA" stroke-miterlimit="10" stroke-linecap="round" stroke-linejoin="round"/>
<path fill-rule="evenodd" clip-rule="evenodd" d="M13.6367 4.24422L18.8004 7.2337L30.0788 4.24422C32.3889 3.70068 34.9707 3.83656 37.009 5.3313C37.009 5.3313 30.6224 -0.239999 25.0511 1.25474L13.6367 4.24422Z" stroke="#E6EBFA" stroke-miterlimit="10" stroke-linecap="round" stroke-linejoin="round"/>
<path fill-rule="evenodd" clip-rule="evenodd" d="M13.5015 46.7764L10.7837 45.1458L13.6373 44.4664V43.787C13.6373 42.8358 13.5015 41.8846 13.3656 40.9334C13.3656 40.9334 13.3656 40.9334 13.3656 40.7975C13.3656 40.5257 13.2297 40.2539 13.2297 39.9822C7.5225 41.4769 6.70718 41.7487 1 43.2434L10.7837 48.8147C12.9579 50.3095 13.3656 49.0865 13.5015 46.7764Z" stroke="#E6EBFA" stroke-miterlimit="10" stroke-linecap="round" stroke-linejoin="round"/>
<path fill-rule="evenodd" clip-rule="evenodd" d="M30.0784 4.2446L18.6641 7.23407V10.4953V28.9757L23.2842 27.7528V12.2618L29.9425 10.4953C34.2909 9.27235 35.5138 10.7671 35.5138 14.8437V32.6446C35.5138 36.993 32.1167 39.1671 30.0784 39.8466L23.2842 41.6131V41.749V47.592L30.8937 45.6896C36.3292 44.1949 39.9981 39.0312 39.9981 34.0035C39.9981 26.6657 39.9981 19.3279 39.9981 11.9901C40.1339 6.69053 35.7856 2.61397 30.0784 4.2446Z" stroke="#E6EBFA" stroke-miterlimit="10" stroke-linecap="round" stroke-linejoin="round"/>
<path fill-rule="evenodd" clip-rule="evenodd" d="M35.5125 32.7797V14.8429C35.5125 10.9022 34.2895 9.54335 30.3488 10.4945V30.3338C30.213 34.2745 28.7182 36.041 24.6417 37.1281C23.9622 37.264 23.4187 37.5357 22.7393 37.6716C23.1469 38.8946 23.2828 40.2534 23.2828 41.8841L30.0771 40.1176C33.0665 39.0305 35.2407 36.8563 35.5125 33.4592C35.5125 33.0515 35.5125 32.9156 35.5125 32.7797Z" stroke="#E6EBFA" stroke-miterlimit="10" stroke-linecap="round" stroke-linejoin="round"/>
<path fill-rule="evenodd" clip-rule="evenodd" d="M13.6358 44.3301L10.7822 45.1454L13.6358 46.776C13.6358 46.0966 13.6358 45.4172 13.6358 44.7377V44.3301Z" stroke="#E6EBFA" stroke-miterlimit="10" stroke-linecap="round" stroke-linejoin="round"/>
<path fill-rule="evenodd" clip-rule="evenodd" d="M23.2856 49.0851C23.2856 48.8134 23.2856 48.5416 23.2856 48.2698V47.9981V42.0191C23.1497 33.866 17.8502 30.7406 17.8502 30.7406L10.7842 26.6641L6.16406 27.887L13.2301 31.9636C18.5296 34.8172 18.6655 42.2909 18.6655 43.2421V43.378V49.3569C18.6655 49.4928 18.6655 49.6287 18.6655 49.7646C18.5296 50.5799 17.9861 54.5206 14.4531 56.0153L18.8014 54.5206C19.4808 54.2488 22.878 52.3464 23.2856 49.0851Z" stroke="#E6EBFA" stroke-miterlimit="10" stroke-linecap="round" stroke-linejoin="round"/>
<path fill-rule="evenodd" clip-rule="evenodd" d="M13.6373 15.93L5.6201 11.3099L1 12.5329L13.6373 19.8707V15.93Z" stroke="#E6EBFA" stroke-miterlimit="10" stroke-linecap="round" stroke-linejoin="round"/>
<path fill-rule="evenodd" clip-rule="evenodd" d="M1 43.3792L10.7837 48.9505C13.6373 50.5812 13.5015 47.9993 13.6373 44.6022V43.7869C13.5015 41.341 13.5015 38.0797 10.9196 36.7209L1 31.0137C1 24.8988 1 18.6481 1 12.5333L13.6373 19.8711V4.24426L18.801 7.23374V28.9754L6.16364 21.7735V27.8883L13.2297 31.9649C17.8498 34.5467 18.6651 39.5745 18.6651 43.7869V49.2223C18.6651 52.4836 15.4038 57.919 11.0555 55.473L1 49.63V43.9228V43.3792Z" stroke="#E6EBFA" stroke-miterlimit="10" stroke-linecap="round" stroke-linejoin="round"/>
</svg>
