<svg width="24" height="24" viewBox="0 0 24 24" fill="none" xmlns="http://www.w3.org/2000/svg">
<g id="Icontyl/Line/Arrow Top">
<g id="icon">
<path id="Vector 165 (Stroke)" fill-rule="evenodd" clip-rule="evenodd" d="M12 22.25C11.5858 22.25 11.25 21.9142 11.25 21.5L11.25 3.49931C11.25 3.0851 11.5858 2.74931 12 2.74931C12.4142 2.74931 12.75 3.0851 12.75 3.49931L12.75 21.5C12.75 21.9142 12.4142 22.25 12 22.25Z" fill="white"/>
<path id="Vector 166 (Stroke)" fill-rule="evenodd" clip-rule="evenodd" d="M5.4238 7.97989C5.15862 7.66168 5.20161 7.18876 5.51981 6.92358L11.1997 2.19015C11.6633 1.80383 12.3366 1.80383 12.8002 2.19015L18.4801 6.92358C18.7983 7.18876 18.8413 7.66169 18.5761 7.97989C18.3109 8.29809 17.838 8.34107 17.5198 8.0759L12 3.47584L6.48011 8.07589C6.1619 8.34107 5.68898 8.29809 5.4238 7.97989Z" fill="white"/>
</g>
</g>
</svg>
